<svg width="840" height="407" viewBox="0 0 840 407" fill="none" xmlns="http://www.w3.org/2000/svg">
<path d="M622.195 20.2038L132.203 316.241M327.737 1L13.0706 191.111M314.934 90.6176L0.268066 280.728M566.004 254.5L171.066 37.2839M839.338 230.815L444.4 13.5992M749.72 243.618L489.395 100.439M596.59 109.821L106.598 405.858" stroke="url(#paint0_linear_2574_24)" stroke-dasharray="7 7"/>
<path d="M690.847 210.4C690.653 210.512 690.418 210.6 690.155 210.66L690.265 211.148C689.697 211.276 689.062 211.276 688.494 211.148L688.604 210.66C688.341 210.6 688.106 210.512 687.912 210.4L684.74 208.569L684.49 209.002L678.146 205.34L678.396 204.907L672.052 201.244L671.802 201.677L665.458 198.015L665.708 197.582L659.365 193.92L659.115 194.353L652.771 190.69L653.021 190.257L646.677 186.595L646.427 187.028L640.083 183.366L640.333 182.933L633.989 179.27L633.739 179.703L627.395 176.041L627.645 175.608L621.301 171.946L621.051 172.379L614.708 168.716L614.958 168.283L608.614 164.621L608.364 165.054L602.02 161.392L602.27 160.959L599.098 159.128C598.932 159.032 598.82 158.933 598.749 158.844L598.358 159.156C598.063 158.784 598.063 158.354 598.358 157.983L598.749 158.294C598.82 158.205 598.932 158.106 599.098 158.011L602.358 156.129L602.108 155.696L608.628 151.932L608.878 152.365L615.397 148.601L615.147 148.168L621.667 144.404L621.917 144.837L628.437 141.073L628.187 140.64L634.707 136.876L634.956 137.309L641.476 133.546L641.226 133.113L647.746 129.349L647.996 129.782L651.256 127.9C651.45 127.788 651.685 127.699 651.948 127.64L651.838 127.152C652.406 127.024 653.041 127.024 653.609 127.152L653.499 127.64C653.762 127.699 653.997 127.788 654.191 127.9L657.363 129.731L657.613 129.298L663.957 132.96L663.707 133.393L670.051 137.056L670.301 136.623L676.645 140.285L676.395 140.718L682.738 144.38L682.988 143.947L689.332 147.61L689.082 148.043L695.426 151.705L695.676 151.272L702.02 154.934L701.77 155.367L708.114 159.029L708.364 158.596L714.708 162.259L714.458 162.692L720.802 166.354L721.051 165.921L727.395 169.583L727.145 170.016L733.489 173.679L733.739 173.246L740.083 176.908L739.833 177.341L743.005 179.172C743.171 179.268 743.283 179.367 743.354 179.456L743.745 179.144C744.04 179.515 744.04 179.946 743.745 180.317L743.354 180.005C743.283 180.095 743.171 180.193 743.005 180.289L739.745 182.171L739.995 182.604L733.475 186.368L733.225 185.935L726.706 189.699L726.956 190.132L720.436 193.896L720.186 193.463L713.666 197.227L713.916 197.66L707.396 201.423L707.146 200.99L700.627 204.754L700.877 205.187L694.357 208.951L694.107 208.518L690.847 210.4ZM88.1646 226.866C87.9728 226.981 87.7393 227.074 87.4773 227.138L87.5959 227.624C87.03 227.762 86.3951 227.773 85.8246 227.655L85.9262 227.165C85.6622 227.11 85.4255 227.026 85.2298 226.918L81.876 225.059L81.6337 225.496L74.9261 221.779L75.1685 221.341L68.4609 217.624L68.2186 218.061L61.511 214.344L61.7534 213.907L55.0458 210.189L54.8035 210.627L48.0959 206.909L48.3383 206.472L41.6307 202.754L41.3883 203.192L34.6808 199.474L34.9232 199.037L28.2156 195.32L27.9732 195.757L21.2657 192.04L21.5081 191.602L18.1543 189.744C17.9868 189.651 17.8734 189.554 17.8008 189.466L17.4153 189.784C17.1131 189.418 17.1055 188.988 17.3948 188.612L17.7912 188.916C17.8606 188.826 17.9706 188.725 18.1348 188.627L21.0876 186.852L20.8301 186.424L26.7357 182.875L26.9932 183.304L32.8989 179.755L32.6414 179.327L38.547 175.778L38.8045 176.207L44.7102 172.658L44.4527 172.23L50.3583 168.681L50.6158 169.11L56.5215 165.562L56.264 165.133L62.1696 161.584L62.4271 162.013L68.3328 158.465L68.0753 158.036L73.9809 154.488L74.2384 154.916L80.1441 151.368L79.8866 150.939L85.7922 147.391L86.0497 147.819L91.9554 144.271L91.6979 143.842L97.6035 140.294L97.861 140.722L100.814 138.948C101.006 138.833 101.239 138.74 101.501 138.676L101.383 138.19C101.948 138.052 102.583 138.041 103.154 138.159L103.052 138.649C103.316 138.704 103.553 138.788 103.749 138.897L107.102 140.755L107.345 140.318L114.052 144.035L113.81 144.473L120.518 148.19L120.76 147.753L127.467 151.47L127.225 151.908L133.933 155.625L134.175 155.188L140.883 158.905L140.64 159.342L147.348 163.06L147.59 162.622L154.298 166.34L154.055 166.777L160.763 170.495L161.005 170.057L167.713 173.775L167.47 174.212L170.824 176.071C170.992 176.163 171.105 176.26 171.178 176.348L171.563 176.03C171.865 176.396 171.873 176.826 171.584 177.202L171.187 176.898C171.118 176.988 171.008 177.089 170.844 177.188L167.891 178.962L168.148 179.39L162.243 182.939L161.985 182.51L156.08 186.059L156.337 186.487L150.431 190.036L150.174 189.607L144.268 193.156L144.526 193.584L138.62 197.133L138.363 196.704L132.457 200.253L132.715 200.681L126.809 204.23L126.551 203.801L120.646 207.35L120.903 207.778L114.998 211.327L114.74 210.898L108.834 214.447L109.092 214.875L103.186 218.424L102.929 217.995L97.0231 221.543L97.2806 221.972L91.3749 225.521L91.1174 225.092L88.1646 226.866Z" fill="#4548B0" fill-opacity="0.1" stroke="#5D64D2" stroke-dasharray="7 7"/>
<defs>
<linearGradient id="paint0_linear_2574_24" x1="470.282" y1="189.92" x2="586.999" y2="118.569" gradientUnits="userSpaceOnUse">
<stop stop-color="#DEDFF4"/>
<stop offset="1" stop-color="#DEDFF4" stop-opacity="0"/>
</linearGradient>
</defs>
</svg>
